<svg width="40" height="40" viewBox="0 0 40 40" fill="none" xmlns="http://www.w3.org/2000/svg">
<g clip-path="url(#clip0_34_1410)">
<path d="M19.464 30C24.1607 30 27.0832 26.5392 27.0832 22.0742C27.0832 20.3908 26.809 18.8708 24.8982 18.4142C25.3632 17.1408 26.7048 13.4575 26.7048 12.2775C26.7048 11.2383 26.0798 10.3675 24.9657 10.3675C23.1898 10.3675 21.5982 15.5117 21.0998 16.7383C20.714 15.625 18.9073 10 17.3148 10C16.0773 10 15.4965 10.8942 15.4965 12.0192C15.4965 13.3983 16.8573 16.9725 17.3507 18.3475C17.1007 18.2575 16.8298 18.1792 16.554 18.1792C15.6223 18.1792 14.6315 19.3158 14.6315 20.2342C14.6315 20.5817 14.8265 21.07 14.9498 21.3942C13.4815 21.785 12.9165 22.7458 12.9165 24.195C12.9123 27.015 15.6357 30 19.464 30ZM23.489 14.2192C23.649 13.7383 24.329 11.7075 24.9657 11.7075C25.3082 11.7075 25.3998 12.055 25.3998 12.3325C25.3998 13.0783 23.864 17.2 23.5248 18.1133L22.1715 17.8792L23.489 14.2192ZM16.7465 11.8875V11.8867C16.7465 11.4217 17.324 10.1017 18.589 13.7267L19.9665 17.645C19.3457 17.5942 18.864 17.5275 18.5582 17.7C18.124 16.575 16.7465 13.0242 16.7465 11.8875ZM16.6548 19.5308L16.6557 19.5317C17.8215 19.5317 19.3265 23.2267 19.3265 23.7267C19.3265 23.9258 19.1315 24.1717 18.9048 24.1717C18.0723 24.1717 15.8432 21.1675 15.8432 20.355C15.8465 20.0542 16.3482 19.5308 16.6548 19.5308ZM15.3148 22.5892C15.7682 22.5892 17.4757 24.945 17.4757 25.445C17.4757 25.6367 17.169 25.7692 17.0107 25.7692C16.3698 25.7692 16.119 25.1633 14.9773 23.7617C13.7948 24.9217 15.7932 27.1558 17.2982 27.1558C18.3365 27.1558 19.0132 26.2108 18.8107 25.515C18.9582 25.515 19.1407 25.5267 19.2765 25.4917C19.3207 26.55 19.639 27.8117 20.9365 27.9017C20.9365 27.8667 21.0165 27.6242 21.0165 27.6125C21.0165 26.9325 20.5948 26.3392 20.5948 25.6475C20.5948 24.5417 21.4582 23.4717 22.334 22.8467C22.6523 22.6125 23.039 22.4675 23.4123 22.335C23.799 22.1908 24.209 22.0225 24.5023 21.7333C24.4582 21.2958 24.2757 20.9092 23.8298 20.9092C22.7273 20.9092 19.0298 21.0658 19.0298 19.3583C19.0298 19.0967 19.034 18.8467 19.7232 18.8467C21.009 18.8467 24.2732 19.1592 25.2282 19.9833C25.9482 20.6125 26.1957 24.405 23.994 26.8075L23.9915 26.8083C22.8332 28.0583 21.3523 28.7067 19.6248 28.7067C17.2607 28.7067 15.3932 27.4333 14.494 25.2575C13.8132 23.5625 14.6457 22.5892 15.3148 22.5892ZM20.0657 21.8858C20.4532 22.0075 20.8507 22.0433 21.249 22.1208C20.954 22.3317 20.6923 22.59 20.4407 22.8667C20.329 22.535 20.1932 22.2108 20.0657 21.8858Z" fill="#505F79"/>
</g>
<defs>
<clipPath id="clip0_34_1410">
<rect width="20" height="20" fill="white" transform="translate(10 10)"/>
</clipPath>
</defs>
</svg>
